HIERARCHY
ROOT Hips
{
  OFFSET 0 0 0
  CHANNELS 6 Xposition Yposition Zposition Zrotation Xrotation Yrotation
  JOINT LeftUpLeg
  {
    OFFSET 4.06525 -3.90732 0.41711
    CHANNELS 3 Zrotation Xrotation Yrotation
    JOINT LeftLeg
    {
      OFFSET 0.00023 -18.4821 0.00367
      CHANNELS 3 Zrotation Xrotation Yrotation
      JOINT LeftFoot
      {
        OFFSET -0.00172 -15.2898 -0.02629
        CHANNELS 3 Zrotation Xrotation Yrotation
        JOINT LeftToeBase
        {
          OFFSET 0.36743 -3.19131 5.54287
          CHANNELS 3 Zrotation Xrotation Yrotation
          JOINT LeftToeBase2
          {
            OFFSET 0.08751 0.04849 1.36758
            CHANNELS 3 Zrotation Xrotation Yrotation
            JOINT LeftToeBase3
            {
              OFFSET 0.07484 0.06785 1.16707
            }
          }
        }
      }
    }
  }
  JOINT RightUpLeg
  {
    OFFSET -4.06526 -3.90731 0.41712
    CHANNELS 3 Zrotation Xrotation Yrotation
    JOINT RightLeg
    {
      OFFSET -0.00029 -18.4821 0.0044
      CHANNELS 3 Zrotation Xrotation Yrotation
      JOINT RightFoot
      {
        OFFSET 0.0016 -15.2898 -0.02569
        CHANNELS 3 Zrotation Xrotation Yrotation
        JOINT RightToeBase
        {
          OFFSET -0.3542 -3.19109 5.54386
          CHANNELS 3 Zrotation Xrotation Yrotation
          JOINT RightToeBase2
          {
            OFFSET -0.08424 0.04854 1.36778
            CHANNELS 3 Zrotation Xrotation Yrotation
            JOINT RightToeBase3
            {
              OFFSET -0.07205 0.0679 1.16725
            }
          }
        }
      }
    }
  }
  JOINT Spine
  {
    OFFSET 1e-005 4.46517 -0.10224
    CHANNELS 3 Zrotation Xrotation Yrotation
    JOINT Spine1
    {
      OFFSET 1e-005 4.46212 -0.1824
      CHANNELS 3 Zrotation Xrotation Yrotation
      JOINT Spine2
      {
        OFFSET 0 4.37937 -0.881
        CHANNELS 3 Zrotation Xrotation Yrotation
        JOINT Spine3
        {
          OFFSET 1e-005 4.68286 0.21414
          CHANNELS 3 Zrotation Xrotation Yrotation
          JOINT Neck
          {
            OFFSET 0 1.76964 0.82454
            CHANNELS 3 Zrotation Xrotation Yrotation
            JOINT Head
            {
              OFFSET 0 1.6961 0.93145
              CHANNELS 3 Zrotation Xrotation Yrotation
              JOINT Head_End
              {
                OFFSET 1e-005 7.8375 1.52603
              }
            }
          }
          JOINT LeftShoulder
          {
            OFFSET 1.19381 -0.75881 -0.02768
            CHANNELS 3 Zrotation Xrotation Yrotation
            JOINT LeftArm
            {
              OFFSET 5.18779 -2e-005 1e-005
              CHANNELS 3 Zrotation Xrotation Yrotation
              JOINT LeftForeArm
              {
                OFFSET 12.7364 -4e-005 2e-005
                CHANNELS 3 Zrotation Xrotation Yrotation
                JOINT LeftHand
                {
                  OFFSET 9.21452 -2e-005 1e-005
                  CHANNELS 3 Zrotation Xrotation Yrotation
                }
              }
            }
          }
          JOINT RightShoulder
          {
            OFFSET -1.19381 -0.75881 -0.02767
            CHANNELS 3 Zrotation Xrotation Yrotation
            JOINT RightArm
            {
              OFFSET -5.18779 1e-005 -1e-005
              CHANNELS 3 Zrotation Xrotation Yrotation
              JOINT RightForeArm
              {
                OFFSET -12.7364 3e-005 -2e-005
                CHANNELS 3 Zrotation Xrotation Yrotation
                JOINT RightHand
                {
                  OFFSET -9.21452 2e-005 -1e-005
                  CHANNELS 3 Zrotation Xrotation Yrotation
                }
              }
            }
          }
        }
      }
    }
  }
}
MOTION
Frames: 11
Frame Time: 	0.0166667
-1.16296e-006 40.627 -1.03378e-006 -1.05647 -4.81054 -0.0886123 6.39109 -18.632 15.2823  -7.42558e-005 27.1808 -0.034434  2.21681 -2.40234 -1.76716  3.76697e-014 -1.29381e-011 -1.02101e-010  -0 0 -0   -2.97746 5.7829 1.75422  0.000119139 43.8954 0.046722  0.601047 -14.3724 12.0561  -6.99662e-012 -1.7531e-011 -9.24301e-011  -0 0 -0   0.140375 0.428587 1.8986  0.144144 1.96172 1.06873  0.168893 2.38769 1.0795  1.04712 4.94849 1.93777  -5.80063 -0.0999268 7.69105  5.24326 -13.9815 6.96837   -12.5104 0.790793 1.84607  -66.3981 0.68327 6.44932  8.23177e-012 1.79357e-011 -5.83151  -5.58313 -1.15387 11.0826  -0.670239 2.39548 10.4955  66.6541 14.4102 13.1452  1.09083e-010 -8.82051e-011 46.1373  -14.7525 -9.84054 6.26136 
0.213249 40.6735 0.487793 -0.614363 -5.02475 -0.44394 5.57549 -17.6891 15.0325  -0.000113574 27.6451 -0.0693735  2.27789 -3.71279 -1.19619  3.76697e-014 -1.29381e-011 -1.02101e-010  -0 0 -0   -4.35001 3.75978 1.71984  0.000219611 48.1763 0.0804371  2.36383 -10.594 13.8251  -6.99662e-012 -1.7531e-011 -9.24301e-011  -0 0 -0   0.0827452 0.429489 1.76394  -0.0195164 2.00613 1.01089  -0.054794 2.48451 0.99521  0.428235 5.21683 1.81714  -5.33789 -0.397571 7.8837  5.13215 -14.2462 7.251   -12.1622 0.94942 1.01552  -66.1888 1.432 5.39436  8.4866e-012 1.79078e-011 -6.64618  -5.37223 -2.39113 10.6129  -0.0606286 2.5042 10.5812  67.2152 15.4407 13.1488  1.05034e-010 -9.22335e-011 43.5662  -15.1906 -10.1466 5.05531 
0.415712 40.7191 0.952971 -0.156663 -5.23909 -0.766524 4.75762 -16.6915 15.0034  -0.000177441 27.8981 -0.116832  2.37875 -4.88492 -0.809004  3.76697e-014 -1.29381e-011 -1.02101e-010  -0 0 -0   -5.79911 1.72478 1.78325  0.000343226 52.0683 0.120257  4.48796 -6.26276 15.5094  -6.99662e-012 -1.7531e-011 -9.24301e-011  -0 0 -0   -0.00536395 0.433992 1.63748  -0.168042 2.03984 0.951094  -0.253891 2.60404 0.905009  -0.133553 5.49306 1.68583  -4.92686 -0.664425 8.0908  4.97006 -14.5448 7.55461   -11.7614 1.13656 0.0992932  -65.9061 2.29541 4.25294  8.77942e-012 1.78713e-011 -7.58398  -5.43409 -2.78146 10.0481  0.507638 2.5849 10.7089  67.7261 16.4273 13.0339  1.00753e-010 -9.61242e-011 40.9621  -15.1785 -10.4642 4.26323 
0.604779 40.7667 1.39696 0.261752 -5.46974 -0.99829 3.9888 -15.642 15.0869  -0.000242819 27.9694 -0.167676  2.4888 -5.93092 -0.589727  3.76697e-014 -1.29381e-011 -1.02101e-010  -0 0 -0   -7.1884 -0.239156 1.84598  0.000492473 55.5945 0.166214  6.56177 -1.95596 16.924  -6.99662e-012 -1.7531e-011 -9.24301e-011  -0 0 -0   -0.0978605 0.468704 1.49116  -0.304592 2.08327 0.880089  -0.426861 2.72978 0.805184  -0.623546 5.76959 1.53503  -4.54582 -0.924058 8.30513  4.77285 -14.8359 7.86214   -11.3258 1.34187 -0.85718  -65.5044 3.23353 3.02305  9.1071e-012 1.78246e-011 -8.63588  -5.53807 -2.69637 9.43415  1.07053 2.6532 10.8431  68.1768 17.3714 12.8265  9.63633e-011 -9.97656e-011 38.3948  -15.0725 -10.7998 3.70552 
0.773691 40.8158 1.8158 0.591764 -5.74011 -1.08875 3.33908 -14.5602 15.24  -0.000300629 27.9157 -0.215517  2.61068 -6.80764 -0.564758  3.76697e-014 -1.29381e-011 -1.02101e-010  -0 0 -0   -8.40171 -2.0089 1.82871  0.000661581 58.6892 0.214437  8.41861 1.93706 17.7282  -6.99662e-012 -1.7531e-011 -9.24301e-011  -0 0 -0   -0.194389 0.567201 1.29651  -0.432997 2.15797 0.787134  -0.567003 2.84476 0.69086  -1.00249 6.0325 1.35361  -4.19337 -1.19737 8.52656  4.55477 -15.0763 8.16195   -10.8876 1.55624 -1.79658  -64.9276 4.23456 1.70408  9.47188e-012 1.77653e-011 -9.81037  -5.51541 -2.27207 8.83759  1.63944 2.72296 10.9628  68.5516 18.2685 12.5178  9.20751e-011 -1.03019e-010 35.9719  -15.0153 -11.0847 3.35975 
0.923683 40.8605 2.20826 0.865438 -6.01496 -1.04314 2.76933 -13.5159 15.4065  -0.000344782 27.8061 -0.255594  2.73385 -7.56771 -0.678905  3.76697e-014 -1.29381e-011 -1.02101e-010  -0 0 -0   -9.44701 -3.63443 1.73347  0.000842105 61.4347 0.260564  10.0628 5.01505 17.9734  -6.99662e-012 -1.7531e-011 -9.24301e-011  -0 0 -0   -0.318417 0.714393 1.07702  -0.555585 2.24944 0.678551  -0.682404 2.95567 0.564487  -1.297 6.27129 1.14735  -3.83357 -1.45993 8.73677  4.30665 -15.2747 8.44335   -10.4162 1.76778 -2.72717  -64.1959 5.20133 0.321794  9.86179e-012 1.76935e-011 -11.0704  -5.31938 -1.64862 8.18154  2.24437 2.79425 11.0302  68.8682 19.0867 12.147  8.77568e-011 -1.06019e-010 33.605  -15.07 -11.4897 3.15993 
1.05245 40.8933 2.57064 1.10605 -6.2719 -0.848773 2.27111 -12.5837 15.5322  -0.000369464 27.7354 -0.281821  2.86104 -8.24786 -0.899279  3.76697e-014 -1.29381e-011 -1.02101e-010  -0 0 -0   -10.3013 -5.11554 1.5379  0.00101394 63.9152 0.29732  11.3701 6.66059 17.4979  -6.99662e-012 -1.7531e-011 -9.24301e-011  -0 0 -0   -0.506977 0.914041 0.846198  -0.679606 2.35165 0.55617  -0.779341 3.06485 0.425558  -1.51479 6.46699 0.915617  -3.42807 -1.70049 8.91817  4.0184 -15.4225 8.69303   -9.8965 1.96215 -3.6361  -63.2915 6.05058 -1.10988  1.02621e-011 1.76104e-011 -12.3696  -4.80668 -1.06181 7.38169  2.92922 2.87461 11.0062  69.1288 19.8101 11.7589  8.32651e-011 -1.0887e-010 31.2101  -15.4126 -12.1648 3.07326 
1.16112 40.9162 2.90582 1.30603 -6.49577 -0.512907 1.84367 -11.7769 15.5739  -0.000377009 27.7162 -0.294288  2.97715 -8.87297 -1.1837  3.76697e-014 -1.29381e-011 -1.02101e-010  -0 0 -0   -10.96 -6.45763 1.23476  0.00116156 66.0465 0.321947  12.4144 7.06412 16.351  -6.99662e-012 -1.7531e-011 -9.24301e-011  -0 0 -0   -0.740349 1.14189 0.60844  -0.798612 2.45997 0.422755  -0.861001 3.16764 0.277775  -1.67934 6.63018 0.666154  -2.9853 -1.90087 9.06819  3.70589 -15.5281 8.90685   -9.31933 2.13781 -4.52917  -62.2722 6.72887 -2.55611  1.06834e-011 1.75127e-011 -13.7443  -4.09829 -0.360536 6.52689  3.66472 2.95565 10.8743  69.3634 20.3869 11.3274  7.87866e-011 -1.1146e-010 28.8812  -15.8469 -13.1029 2.97776 
1.24924 40.9271 3.21589 1.46551 -6.67559 -0.0257402 1.4874 -11.1276 15.4564  -0.000366294 27.8009 -0.29084  3.07283 -9.48073 -1.48275  3.76697e-014 -1.29381e-011 -1.02101e-010  -0 0 -0   -11.4086 -7.65804 0.792997  0.00125479 67.8256 0.329096  13.0158 5.98042 14.5819  -6.99662e-012 -1.7531e-011 -9.24301e-011  -0 0 -0   -1.01927 1.39236 0.368618  -0.909212 2.57416 0.278364  -0.93131 3.26078 0.121262  -1.81162 6.76078 0.401473  -2.48824 -2.04849 9.17902  3.37657 -15.5911 9.0761   -8.66138 2.29351 -5.41267  -61.1605 7.16987 -3.99004  1.1131e-011 1.73971e-011 -15.2135  -3.2314 0.560346 5.66715  4.4525 3.03754 10.5987  69.5855 20.7791 10.8567  7.44255e-011 -1.13757e-010 26.6625  -16.254 -14.4898 2.77825 
1.32208 40.9336 3.50811 1.57118 -6.77316 0.560961 1.20981 -10.6364 15.2215  -0.000342174 27.9354 -0.275371  3.14795 -10.0546 -1.7838  3.76697e-014 -1.29381e-011 -1.02101e-010  -0 0 -0   -11.6615 -8.7614 0.264867  0.00127822 69.1062 0.320719  13.2358 3.93354 12.2856  -6.99662e-012 -1.7531e-011 -9.24301e-011  -0 0 -0   -1.29857 1.61038 0.13782  -1.00612 2.67361 0.133197  -0.991011 3.34072 -0.0335393  -1.92383 6.87 0.136853  -1.97578 -2.11543 9.24862  3.04666 -15.6295 9.20145   -7.95195 2.41437 -6.27208  -60.0438 7.32906 -5.37387  1.16055e-011 1.72611e-011 -16.7819  -2.31411 1.60295 4.83469  5.2442 3.10195 10.1983  69.8472 20.9297 10.3006  7.03346e-011 -1.15721e-010 24.6199  -16.5794 -15.8966 2.36163 
1.38499 40.9422 3.78978 1.59583 -6.73529 1.22221 1.02203 -10.3359 14.8573  -0.000308405 28.0943 -0.25089  3.20255 -10.5948 -2.05399  3.76697e-014 -1.29381e-011 -1.02101e-010  -0 0 -0   -11.703 -9.81849 -0.347836  0.00121635 69.7692 0.298303  13.0754 1.27872 9.48741  -6.99662e-012 -1.7531e-011 -9.24301e-011  -0 0 -0   -1.5228 1.72839 -0.0728269  -1.08113 2.73327 -0.00208824  -1.04222 3.40127 -0.175602  -2.04007 6.96977 -0.111578  -1.46786 -2.04572 9.25765  2.73227 -15.6674 9.26855   -7.19726 2.48271 -7.12117  -59.0141 7.08752 -6.66343  1.21043e-011 1.71027e-011 -18.4453  -1.5121 2.84365 4.10302  6.00503 3.12681 9.6506  70.2226 20.7492 9.59118  6.67921e-011 -1.17279e-010 22.8778  -16.775 -16.8679 1.47965 
